<svg width="22" height="38" viewBox="0 0 22 38" fill="none" xmlns="http://www.w3.org/2000/svg">
<rect width="22" height="38" fill="#1E1E1E"/>
<rect width="1920" height="2727" transform="translate(-153 -1616)" fill="#1A1A1A"/>
<path d="M-33 -0.999998C-33 -17.5685 -19.5685 -31 -3 -31H993V69H-2.99999C-19.5685 69 -33 55.5685 -33 39V-0.999998Z" fill="url(#paint0_linear_0_1)"/>
<path d="M20.7678 20.7678C21.7441 19.7915 21.7441 18.2085 20.7678 17.2322L4.85786 1.32233C3.88155 0.34602 2.29864 0.34602 1.32233 1.32233C0.34602 2.29864 0.34602 3.88155 1.32233 4.85786L15.4645 19L1.32233 33.1421C0.34602 34.1184 0.34602 35.7014 1.32233 36.6777C2.29864 37.654 3.88155 37.654 4.85786 36.6777L20.7678 20.7678ZM17 21.5H19V16.5H17V21.5Z" fill="#1A1A1A"/>
<defs>
<linearGradient id="paint0_linear_0_1" x1="480" y1="19.0001" x2="993" y2="19.0001" gradientUnits="userSpaceOnUse">
<stop stop-color="white"/>
<stop offset="1" stop-color="#1A1A1A" stop-opacity="0.97"/>
</linearGradient>
</defs>
</svg>
