<svg width="2140" height="241" viewBox="0 0 2140 241" fill="none" xmlns="http://www.w3.org/2000/svg">
<rect x="110" width="1920" height="241" fill="white"/>
<path d="M1565 0H1627.86L1774 241H1711.14L1565 0Z" fill="url(#paint0_linear_15_80)"/>
<path d="M1688 0H1750.86L1897 241H1834.14L1688 0Z" fill="url(#paint1_linear_15_80)"/>
<path d="M1812 0H1874.86L2021 241H1958.14L1812 0Z" fill="url(#paint2_linear_15_80)"/>
<path d="M1932 0H1994.56L2140 241H2077.44L1932 0Z" fill="url(#paint3_linear_15_80)"/>
<path d="M0 0H62.8571L209 241H146.143L0 0Z" fill="url(#paint4_linear_15_80)"/>
<path d="M123 0H185.857L332 241H269.143L123 0Z" fill="url(#paint5_linear_15_80)"/>
<path d="M247 0H309.857L456 241H393.143L247 0Z" fill="url(#paint6_linear_15_80)"/>
<path d="M367 0H429.556L575 241H512.444L367 0Z" fill="url(#paint7_linear_15_80)"/>
<defs>
<linearGradient id="paint0_linear_15_80" x1="1669.5" y1="0" x2="1669.5" y2="241" gradientUnits="userSpaceOnUse">
<stop stop-color="#1A1A1A"/>
<stop offset="1" stop-color="#1A1A1A" stop-opacity="0.35"/>
</linearGradient>
<linearGradient id="paint1_linear_15_80" x1="1792.5" y1="0" x2="1792.5" y2="241" gradientUnits="userSpaceOnUse">
<stop stop-color="#1A1A1A"/>
<stop offset="1" stop-color="#1A1A1A" stop-opacity="0.35"/>
</linearGradient>
<linearGradient id="paint2_linear_15_80" x1="1916.5" y1="0" x2="1916.5" y2="241" gradientUnits="userSpaceOnUse">
<stop stop-color="#1A1A1A"/>
<stop offset="1" stop-color="#1A1A1A" stop-opacity="0.35"/>
</linearGradient>
<linearGradient id="paint3_linear_15_80" x1="2036" y1="0" x2="2036" y2="241" gradientUnits="userSpaceOnUse">
<stop stop-color="#1A1A1A"/>
<stop offset="1" stop-color="#1A1A1A" stop-opacity="0.35"/>
</linearGradient>
<linearGradient id="paint4_linear_15_80" x1="104.5" y1="0" x2="104.5" y2="241" gradientUnits="userSpaceOnUse">
<stop stop-color="#1A1A1A"/>
<stop offset="1" stop-color="#1A1A1A" stop-opacity="0.35"/>
</linearGradient>
<linearGradient id="paint5_linear_15_80" x1="227.5" y1="0" x2="227.5" y2="241" gradientUnits="userSpaceOnUse">
<stop stop-color="#1A1A1A"/>
<stop offset="1" stop-color="#1A1A1A" stop-opacity="0.35"/>
</linearGradient>
<linearGradient id="paint6_linear_15_80" x1="351.5" y1="0" x2="351.5" y2="241" gradientUnits="userSpaceOnUse">
<stop stop-color="#1A1A1A"/>
<stop offset="1" stop-color="#1A1A1A" stop-opacity="0.35"/>
</linearGradient>
<linearGradient id="paint7_linear_15_80" x1="471" y1="0" x2="471" y2="241" gradientUnits="userSpaceOnUse">
<stop stop-color="#1A1A1A"/>
<stop offset="1" stop-color="#1A1A1A" stop-opacity="0.35"/>
</linearGradient>
</defs>
</svg>
