<?xml version="1.0" encoding="utf-8"?>
<!-- Generator: Adobe Illustrator 27.3.1, SVG Export Plug-In . SVG Version: 6.00 Build 0)  -->
<svg version="1.1" id="Слой_1" xmlns="http://www.w3.org/2000/svg" xmlns:xlink="http://www.w3.org/1999/xlink" x="0px" y="0px"
	 viewBox="0 0 558.52 558.52" style="enable-background:new 0 0 558.52 558.52;" xml:space="preserve">
<style type="text/css">
	.st0{fill:#FFFFFF;}
</style>
<rect width="558.52" height="558.52"/>
<g>
	<path class="st0" d="M396.44,195.03c-8.57-2.56-15.11-3.74-20.92-6.47c-5.27-2.48-9.74-6.66-14.57-10.1
		c-0.34,0.65-0.68,1.29-1.02,1.94c2.15,5.75,4.31,11.5,6.18,16.49c-8.24,9.55-16.05,18.6-23.99,27.8c-2.45-1.06-5.56-2.4-9.01-3.89
		c-0.68,1.88-1.51,2.97-1.28,3.73c3.71,11.98-4.57,17.85-12.15,24.05c-7.55,6.16-17.27,10.24-19.35,19.76
		c-12.12,0.71-23.63,1.39-36.49,2.15c1.05,0.92,0.43,0.65,0.32,0.24c-6.73-24.14-28.01-29.78-47.76-34.56
		c-22.62-5.47-46.13-2.74-69.22,0.29c0.42-7.16,14.62-10.39,5.54-20.06c2.73-2.9,5.17-5.51,8.21-8.73
		c-8.03-4.01-9.84,4.76-16.91,6.01c1.81-3.07,2.73-5.27,4.21-7c4.05-4.75,9.67-8.69,12.14-14.11c2.6-5.69,3.86-11.96,8.34-16.76
		c2.34-2.51,4.54-5.14,6.79-7.74c0.84-0.97,2.36-2.04,2.29-2.98c-0.59-8.23,5.85-8.75,11.17-10.46c6.41-2.05,13.12-3.36,19.24-6.05
		c17.07-7.51,35.97-5.28,53.35-10.55c15.61-4.74,30.67-5.16,46.54-0.47c8.76,2.59,18.63,2.52,27.91,2.02
		c11-0.59,16.62,7.26,23.85,12.74c2.66,2.02,4.86,4.63,7.4,6.82c7.81,6.73,16.16,12.91,23.3,20.28
		C393.49,182.48,393.91,187.99,396.44,195.03z M269.04,168.65c8.45-4.52,14.86-7.94,22.81-4.86c3.13,1.21,6.49,1.98,9.82,2.43
		c1.13,0.15,2.47-1.28,3.71-1.99c-0.61-1.03-1.08-2.83-1.84-2.97c-7.83-1.4-16.54-5.26-23.38-3.15c-12.27,3.79-23.94,4.04-36.2,2.3
		c-3.34-0.47-6.84,0.22-10.27,0.39c-0.03,1.24-0.07,2.49-0.1,3.73c4.64,0.63,9.28,1.26,13.92,1.9c4.54,0.63,9.08,1.26,13.62,1.89
		c-8.49,4.81-18.84-0.55-25.62,8.3c6.86,0.81,13.54,0.19,20.23,0.1c16.6-0.2,33.21-0.1,49.82-0.29c2.48-0.03,4.94-1.02,7.41-1.57
		c-2.47-1.25-4.85-3.37-7.42-3.62C294.17,170.15,282.76,169.57,269.04,168.65z M236.08,189.93c0.01,1.34,0.02,2.68,0.04,4.02
		c3.09,0.14,6.18,0.38,9.27,0.4c10.87,0.08,21.79-0.55,32.61,0.27c12.95,0.98,25.8,3.32,38.73,4.68c1.98,0.21,4.18-1.68,6.27-2.6
		c-2.11-1.06-4.14-2.75-6.36-3.07c-6.17-0.87-12.43-1.02-18.63-1.73c-13.41-1.53-26.77-3.84-40.22-4.62
		C250.63,186.88,243.32,188.97,236.08,189.93z M341.43,176.49c-4.46-1.67-7.16-3.02-10.02-3.64c-1.69-0.36-3.63,0.45-5.45,0.73
		c3.41,2.85,6.41,6.97,10.33,8.22C341.24,183.38,342.11,179.38,341.43,176.49z M334.1,188.46c-0.37,1.2-0.74,2.4-1.11,3.59
		c3.55,1.2,7.04,2.7,10.69,3.39c0.91,0.17,2.31-2.22,4.52-4.49C342.22,189.9,338.16,189.18,334.1,188.46z"/>
	<path class="st0" d="M363.07,445.38c-9.07,24.17-24.69,40.51-50.4,45.88c-18.15,3.79-35.75,0.68-53.49-3.03
		c-15.48-3.24-29.34-8.91-39.77-21.33c-0.38-0.46-1.41-0.38-4.23,0.74c1.85,2.96,3.11,6.6,5.64,8.75
		c10.76,9.12,23.19,15.02,37.22,17.23c13.85,2.18,27.73,4.22,42.02,6.38c-1.9,9.54-6.75,18.19-16.68,23.3
		c-1.43,0.74-3.52,0.56-5.24,0.32c-24.58-3.46-49.15-7.07-73.74-10.51c-7.51-1.05-15.07-1.67-22.6-2.55
		c-25.11-2.93-46.67-12.94-63.66-32.01c-1.03-1.15-2.67-2.46-2.69-3.71c-0.2-12.39-0.12-24.78-0.12-39.25
		c5.35,8.39,9.08,14.85,13.49,20.82c1.38,1.87,4.57,2.41,6.93,3.56c-0.52-2.47-0.28-5.54-1.69-7.3
		c-7.95-9.94-11.97-21.15-10.91-34.7c1.41,2.24,2.95,4.41,4.22,6.73c3.23,5.9,6.1,12.03,9.67,17.71c0.9,1.43,3.91,1.52,5.95,2.23
		c0.13-1.93,0.89-4.09,0.3-5.77c-2.91-8.24-6.17-16.35-9.58-25.22c5.73,1.15,11.47,0.97,15.48,3.52c3.28,2.08,5.2,7.18,6.51,11.32
		c2.71,8.56,9.95,16.07,17.53,15.29c9.02-0.92,18.1-2.52,26.77-5.12c10.94-3.29,21.27-8.71,32.26-11.72
		c16.78-4.6,33.75-10.03,50.93-11.32C313.53,413.35,342.15,419.12,363.07,445.38z"/>
	<path class="st0" d="M400.59,370.84c2.32-3.32,4.24-7.05,7.04-9.89c6.2-6.28,11.5-13.29,20.27-17.09
		c13.24-5.73,18.91-18.87,26.48-31.76c17.45,16.85,22.42,37.32,20.63,60.32c10.02-3.31,15.52-0.24,15.15,7.72
		c-8.63-0.69-14.95,3.1-19.47,12.73c-1.32-5.24-2.18-8.67-3.04-12.09c-0.99-0.03-1.97-0.06-2.96-0.08
		c-0.13,5.21-0.8,10.48-0.26,15.62c0.87,8.27,3.21,16.4,3.74,24.67c1.28,19.9-5.18,37.87-15.31,54.68
		c-0.58,0.96-1.82,1.53-3.69,3.03c0-9.63,0-18.13,0-26.63c-0.82-0.38-1.64-0.76-2.46-1.15c-5.16,7.83-11.05,15.28-15.32,23.56
		c-8.29,16.05-20.47,28.04-35.55,37.44c-1.33,0.83-2.92,1.45-3.91,2.58c-13.17,15.18-30.44,16.68-48.78,14.88
		c-9.83-0.96-19.67-1.8-29.87-2.72c5.47-11.54,10.53-22.3,15.68-33.02c0.53-1.11,1.43-2.34,2.48-2.86
		c17.6-8.65,28.52-23.21,36.25-41.48c9.69,7.59,19.47,5.02,29.76,1.94c13.25-3.96,17.38-15.29,21.73-25.87
		c6.39-15.53,6.01-31.26-4.47-45.32c-2.88-3.87-7.38-6.53-11.14-9.74C402.59,370.5,401.59,370.67,400.59,370.84z"/>
	<path class="st0" d="M390.87,245.97c7.4,1.97,19.74,4.14,31.22,8.55c22.77,8.76,28.01,39.36,16.58,59.84
		c-12.74,22.83-33.56,28.02-55.16,30.88c-24.24,3.2-42.47-9.74-55.32-29.72c-8.17-12.7-16.7-25.76-14.75-41.89
		c0.55-4.56,3.26-10.4,6.87-12.74c10.27-6.67,21.5-11.24,34.41-11.29C365.09,249.57,375.45,247.61,390.87,245.97z"/>
	<path class="st0" d="M174.74,245.93c21.12-0.41,41.13,4.25,60.86,10.61c9.94,3.21,15.51,11.35,12.52,21.43
		c-4.33,14.6-8.99,29.4-15.99,42.81c-4.25,8.14-13.16,13.87-20.06,20.59c-0.66,0.65-1.91,1-2.88,0.99
		c-17.79-0.12-36,5.29-53.11-4.06c-2.03-1.11-4.35-1.84-6.63-2.35c-10.41-2.33-16.57-8.5-19.47-18.92
		c-2.12-7.64-7.33-14.61-8.52-22.29c-3.16-20.39,5.27-37.72,22.58-44.33C153.47,246.81,164.46,247.29,174.74,245.93z"/>
	<path class="st0" d="M312.24,133.88c-24.47-12.49-47.18-0.75-70.2,1.92c-3.05-14.84-6.38-29.28-8.82-43.88
		c-0.78-4.7,0.24-9.92,1.39-14.68c3.59-14.89,7.34-29.75,11.59-44.45c2.91-10.07,9.42-12.69,19.73-8.04
		c18.62,8.39,30.2,23.68,37.65,41.9c8.03,19.64,8.73,40.72,9.31,61.66C312.9,129.31,312.65,130.33,312.24,133.88z"/>
	<path class="st0" d="M78.79,420.88c-14.77-3.42-18.91-19.3-18.61-42.34c5.8,3.63,11.63,7.27,18.85,11.78
		c-1.83-8.78-12.41-16-19.45-15.61c-6.64-29.67-1.7-58.2,8.98-87.49c2.78,3.98,5.11,7.32,7.91,11.35
		c-8.35,2.39-10.39,8.02-10.36,15.11c0.01,3.09-0.07,6.49-1.3,9.21c-5.58,12.32,0.05,24.44,0.95,36.45
		c0.47,6.25,6.72,12.07,10.35,18.06c10.99-6.58,11.61-10.03,8.98-19.16c-1.82-6.32-1.3-13.36-1.5-20.08
		c-0.22-7.15,3.93-11.63,8.24-17.19c4.44-5.74,12.53-13.36,4.88-24.27c9.23,4.03,13.3,8.25,11.07,17.77
		c-3.08,13.13-5.35,26.59-6.26,40.02c-0.6,8.82,1.8,17.85,3.01,28.15c-5.91-1.97-11.78-3.93-16.31-5.44
		c-1.61,4.82-3.77,9.02-4.3,13.41c-0.96,7.95-1.14,16.02-1.3,24.05c-0.2,9.89-0.05,19.78-0.05,31.87
		C77.41,437.44,79.28,429.24,78.79,420.88z"/>
	<path class="st0" d="M264.36,391.77c-6.36,0.93-13.61,2-21.49,3.15c1.87,11.77-9.94,12.8-17.6,16.52
		c-14.98,7.27-15.57,6.74-19.3-9.38c-1.7-7.34-2.27-15-2.71-22.55c-0.16-2.69,0.75-6.84,2.61-8c5.52-3.44,11.7-5.85,17.76-8.35
		c1.54-0.64,3.57-0.1,4.37-0.1c4.06,10.1,7.78,19.39,11.51,28.67c1.33-0.49,2.67-0.98,4-1.46c-1.89-5.57-3.98-11.08-5.6-16.72
		c-0.81-2.83-0.77-5.9-1.12-8.86c3.14,0.38,6.39,0.36,9.41,1.19C258.32,369.22,266.44,375.93,264.36,391.77z"/>
	<path class="st0" d="M235.69,134.46c-14.36,6.81-22.39,0.27-30.24-7.64c-7.64-7.7-13.66-16.01-16.12-26.92
		c-2.81-12.45-1.35-15.82,11.02-20.26c18.67-6.7,24.1-3.47,27.89,16.44C230.74,109.19,233.33,122.28,235.69,134.46z"/>
	<path class="st0" d="M301.11,356.71c5.76-10.92,11.36-20.76,24.9-20.44c2.34,0.06,5.72,0.48,6.83,2.02
		c11.74,16.23,29.44,16.98,46.81,18.34c7.43,0.58,14.94,0.1,22.19,0.1c-2.56,11.06-9.99,16.95-21.52,15.58
		c-15.51-1.85-31.09-3.42-46.41-6.3C322.84,363.92,312.14,359.91,301.11,356.71z"/>
	<path class="st0" d="M461.26,265.42c-13.36-7.17-26.25-10.74-33.57-23.44c-2.87-4.98-7.83-8.75-11.84-13.07
		c7.33-1.62,8.01-1.23,17.26,8.13c4.64,4.69,9.47,9.19,14.21,13.78c0.61-0.38,1.22-0.75,1.83-1.13c-0.99-2.23-1.52-4.88-3.06-6.63
		c-9.15-10.38-17.98-21.33-33.25-23.02c-1.42-0.16-2.69-1.71-4.03-2.61c1.16-1.12,2.3-3.19,3.49-3.22
		c8.85-0.21,18.19-1.79,26.43,0.49c10.38,2.88,17.35,11.17,19.03,22.54C459.05,245.92,459.94,254.65,461.26,265.42z"/>
	<path class="st0" d="M222.04,348.49c6.9-14.2,26.89-22.65,42.46-18.27c6.75,1.9,13.33,4.54,20.17,5.9c6.55,1.3,13.34,1.37,20.13,2
		c-5.83,14.16-9.97,17.53-21.06,16.99c-1.97-0.1-4.29-0.53-5.78-1.68c-13.57-10.46-29.13-7.83-44.39-6.95
		C229.81,346.69,226.1,347.75,222.04,348.49z"/>
	<path class="st0" d="M375.02,416.46c1.97-9.44,3.78-18.92,6.09-28.28c0.32-1.31,3.07-2.81,4.73-2.86
		c6.58-0.19,11.73,5.13,12.37,11.8c0.76,7.96,1.69,15.91,2.73,23.85c0.72,5.49-7.09,15.4-12.77,15.93
		c-6.85,0.63-11.3-4.06-11.73-12.36c-0.14-2.61-0.3-5.22-0.46-7.82C375.66,416.63,375.34,416.54,375.02,416.46z"/>
	<path class="st0" d="M108.14,240.36c4.07-1.47,8.14-2.94,14.58-5.26c-4.19,7.2-7.44,12.77-10.9,18.73
		c1.46,1.17,2.95,2.35,4.37,3.49c-2.35,4.61-4.68,9.19-7.18,14.09c-2.52-1.61-5.37-3.37-8.17-5.22
		c-9.51-6.31-11.04-16.76-4.05-25.75c3.63-4.67,6.53-9.94,10.3-14.49c7.88-9.51,19.77-10.44,30.45-13.9
		c0.66,0.47,1.32,0.94,1.98,1.42c-1.79,2.72-2.99,6.33-5.49,7.97c-6.29,4.13-13.22,7.3-19.79,11.02c-2.58,1.46-4.91,3.37-7.35,5.07
		C107.32,238.48,107.73,239.42,108.14,240.36z"/>
	<path class="st0" d="M212.52,141.08c-6.5,2.45-13.29,5.66-20.43,7.53c-9.1,2.39-20.46-8.07-21.98-19.46
		c-0.14-1.03-0.2-2.1-0.11-3.13c0.37-4.26-0.79-10.43,1.54-12.37c4.81-3.98,15.99,0.35,20.52,5.57
		C198.5,126.65,205.47,133.61,212.52,141.08z"/>
	<path class="st0" d="M292.06,303.25c2,13.25,3.45,14.9,14.13,16.54c-2,8.53-6.57,12.32-14.3,11.28
		c-5.91-0.79-11.82-1.84-17.61-3.26c-7.87-1.92-13.89-12.77-11.08-20.34c0.69-1.86,3.67-3.91,5.71-4.04
		C276.63,302.97,284.41,303.25,292.06,303.25z"/>
	<path class="st0" d="M195.75,362.07c0.35,6.69,0.61,11.82,0.81,15.57c-7.08,3.11-13.74,5.51-19.84,8.9
		c-4.61,2.57-5.39,6.63-3.03,12.03c2.98,6.83,4.62,14.24,6.84,21.41c-1.16,0.8-2.33,1.6-3.49,2.4c-3.83-2.92-8.46-5.23-11.27-8.92
		c-3.23-4.24-5.61-9.52-6.91-14.71c-0.81-3.22,0.64-7.31,2.1-10.55c0.32-0.7,5.02,0.57,8.97,1.11c0.18-1.61,0.82-3.93,0.61-6.16
		c-0.97-10.16,0.72-13.41,10.37-17.06C185.44,364.38,190.3,363.52,195.75,362.07z"/>
	<path class="st0" d="M345.61,410.86c-7.54-1.73-15.68-3.35-23.63-5.64c-1.56-0.45-3.5-3.59-3.34-5.31
		c0.63-6.6,0.52-14.04,7.65-17.66c14.14-7.18,17-6.91,24.99,1.07c1.47,1.46,2.86,3,3.87,4.08
		C352.07,394.99,349.17,402.12,345.61,410.86z"/>
	<path class="st0" d="M504.85,353.56c-3.85-5.82-8.22-12.08-12.22-18.57c-3.84-6.23-7.31-12.69-11.4-19.83
		c-2.74,4.19-4.75,7.27-7.08,10.84c-6.32-7.05-11.97-13.37-18.06-20.16c7.3-3.61,14.17-7.33,21.35-10.3c1.54-0.64,5.5,0.9,6.14,2.39
		c2.4,5.63,3.64,11.74,5.82,17.48c1.42,3.72,2.93,8.01,5.76,10.49C505.71,335.14,507.52,339.6,504.85,353.56z"/>
	<path class="st0" d="M364.41,98.12c-4.73,7.94-8.84,14.84-12.95,21.75c-0.78-0.24-1.57-0.49-2.35-0.73
		c-0.66-2.83-1.32-5.67-2.63-11.33c-8.05,9.5-14.92,17.6-21.79,25.71c-0.64-0.29-1.29-0.58-1.93-0.87
		c2.33-8.18,4.5-16.41,7.05-24.52c1.4-4.45,3.62-8.63,5.13-13.06c2.56-7.53,4.83-8.91,11.78-5.81
		C352.38,91.78,357.82,94.79,364.41,98.12z"/>
	<path class="st0" d="M449.96,293.89c1.67-3.17,3.53-6.27,4.96-9.55c1.44-3.31,2.46-6.8,3.78-10.54
		c7.7-5.72,16.31-11.56,24.25-18.22c5.51-4.62,8.96-1.86,12.51,1.96c4.09,4.4,0.24,7.04-2.59,9.61
		c-9.46,8.56-18.75,17.33-28.7,25.29c-3.04,2.44-7.96,2.53-12.02,3.7C451.42,295.39,450.69,294.64,449.96,293.89z"/>
	<path class="st0" d="M477.66,413.65c-1.2-0.93-5.43-3-5.21-4.3c0.74-4.37-6.24-10.39,2.35-13.19c0.95-0.31,2.46-0.74,2.62-1.39
		c1.91-7.45,7.57-8.37,14-9.45c1.87-0.31,3.03-5.44,4.34-8.44c1.51-3.46,3.29-10.15,4.16-10.02c6.4,0.93,4.46,5.73,3.63,10.12
		c-1.29,6.81-1.6,13.84-3.2,20.56C497.15,411.13,490.17,411.69,477.66,413.65z"/>
	<path class="st0" d="M113.42,302.49c-7.51-7.04-13.23-11.89-18.34-17.31c-6.79-7.22-13.38-14.67-19.48-22.47
		c-2.11-2.7-2.5-6.74-3.68-10.16c1.03-0.64,2.06-1.28,3.1-1.92c3.41,2.86,6.69,5.89,10.25,8.54c9.34,6.95,18.81,13.72,28.23,20.57
		c0.97,0.71,2.77,1.57,2.7,2.21C115.55,288.05,114.6,294.12,113.42,302.49z"/>
	<path class="st0" d="M312.71,58.11c15.74,8.82,25.33,26.73,5.38,59.21C316.35,98.21,314.62,79.11,312.71,58.11z"/>
	<path class="st0" d="M442.13,209.16c-10.82-6.67-20.45-6.34-30.51-2.5c-1.77,0.68-6.51-1.52-6.94-3.16
		c-1.12-4.26-4.83-10.74,1.14-12.94c7.09-2.61,15.49-4.18,22.74-2.91c4.86,0.85,9.12,7.1,12.81,11.62
		C442.8,201.02,441.88,204.67,442.13,209.16z"/>
	<path class="st0" d="M192.61,422.27c-3.21-3.46-5.72-5.16-6.77-7.5c-2.65-5.91-4.91-12.04-6.83-18.23
		c-2.51-8.13,5.02-8.35,9.31-10.55c3.95-2.03,7.76-1.5,8.5,4.19c1.01,7.77,2.61,15.51,2.78,23.29
		C199.64,415.89,195.83,418.39,192.61,422.27z"/>
	<path class="st0" d="M312.56,392.38c-6.07-0.39-12.38-0.8-19.24-1.25c-1.52-8.08-2.33-17.97,7-20.81
		c7.05-2.14,15.86,1.5,24.63,2.66C320.07,380.63,316.31,386.52,312.56,392.38z"/>
	<path class="st0" d="M365.09,109.92c0.56,0.15,1.71,0.16,2.49,0.71c4.39,3.1,8.69,6.32,13.02,9.5c-3.31,3.34-6.54,6.75-9.95,9.98
		c-1.69,1.61-3.84,2.73-5.53,4.33c-6.34,6-12.5,6.32-18.5-0.27C352.66,126.23,358.75,118.23,365.09,109.92z"/>
	<path class="st0" d="M365.95,151.48c11.02-14.36,25.61-9.04,39.96,0.16c-6.11,3.61-11.89,7.53-18.14,10.46
		c-2.08,0.98-5.74,0.15-7.98-1.1C375.06,158.36,370.8,154.89,365.95,151.48z"/>
	<path class="st0" d="M130.31,178.96c9.88-16.29,21.51-19.4,34.82-10.1c-1.17,6.98-4.5,10.84-12.49,10.21
		C145.65,178.53,138.59,178.96,130.31,178.96z"/>
	<path class="st0" d="M359.02,393.5c13.84,7.52,14.3,8.82,10.36,28.76c-5.77-1.48-12.45-0.65-15.3-7.99
		C350.9,406.08,354.96,399.88,359.02,393.5z"/>
	<path class="st0" d="M91.59,312.3c-7.61-11.34-14.23-20.67-20.06-30.46c-0.91-1.53,1.78-5.21,2.8-7.89
		c1.91,0.89,4.75,1.26,5.59,2.75c4.82,8.62,9.42,17.39,13.45,26.4C94.25,305.05,92.47,308.19,91.59,312.3z"/>
	<path class="st0" d="M119.46,195.02c4.09-7.33,8.41-13.14,18.08-11.38c4.06,0.74,8.45-0.31,12.5,0.47c2.15,0.41,3.88,2.99,5.8,4.59
		c-2,1.47-3.9,4.02-6.03,4.24C140.04,193.97,130.21,194.35,119.46,195.02z"/>
	<path class="st0" d="M417.9,169.04c-6.3,2.71-11.81,6.3-17.73,7.18c-3.61,0.54-7.84-3.08-12.12-4.97
		C398.82,157.62,403.76,157.42,417.9,169.04z"/>
	<path class="st0" d="M111.34,213.22c-2.65-5.9-0.66-9.45,5.57-10.55c9.34-1.64,18.73-3.06,29.04-4.72
		C142.22,205.48,129.22,210.78,111.34,213.22z"/>
	<path class="st0" d="M263.54,282.58c5.63-9.04,13.82-7.79,20.84-7.93c7.3-0.15,14.64,1.51,22.45,2.43c0.3,2.06,0.62,4.25,0.8,5.5
		C293.26,282.58,279.13,282.58,263.54,282.58z"/>
	<path class="st0" d="M156.64,157.78c5.26-4.58,9.32-8.12,13.68-11.92c2.98,1.83,5.78,3.55,7.77,4.77
		c-2.34,4.39-4.49,8.42-7.35,13.77C166.83,162.56,162.17,160.37,156.64,157.78z"/>
</g>
</svg>
